<svg width="12" height="14" viewBox="0 0 12 14" fill="none" xmlns="http://www.w3.org/2000/svg">
<path fill-rule="evenodd" clip-rule="evenodd" d="M10.4714 4.86421C10.4714 5.70153 10.6927 6.19499 11.1797 6.76373C11.5487 7.18273 11.6667 7.72053 11.6667 8.30399C11.6667 8.8868 11.4752 9.44006 11.0915 9.88926C10.5893 10.4278 9.88099 10.7715 9.15813 10.8313C8.11059 10.9206 7.06246 10.9958 6.00033 10.9958C4.93753 10.9958 3.89003 10.9509 2.84249 10.8313C2.11897 10.7715 1.41067 10.4278 0.909108 9.88926C0.525475 9.44006 0.333328 8.8868 0.333328 8.30399C0.333328 7.72053 0.451928 7.18273 0.820322 6.76373C1.32256 6.19499 1.52927 5.70153 1.52927 4.86421V4.58019C1.52927 3.45889 1.80888 2.72567 2.38466 2.0079C3.2407 0.961128 4.6129 0.333328 5.97053 0.333328H6.03013C7.41693 0.333328 8.83346 0.991342 9.675 2.0831C10.2209 2.7861 10.4714 3.48843 10.4714 4.58019V4.86421ZM4.04911 12.3739C4.04911 12.0382 4.35721 11.8844 4.64211 11.8186C4.97539 11.7481 7.0062 11.7481 7.33946 11.8186C7.6244 11.8844 7.93246 12.0382 7.93246 12.3739C7.91586 12.6935 7.7284 12.9769 7.46933 13.1568C7.1334 13.4187 6.73919 13.5845 6.32706 13.6443C6.09913 13.6738 5.87519 13.6745 5.65519 13.6443C5.24239 13.5845 4.84819 13.4187 4.51291 13.1561C4.25318 12.9769 4.06568 12.6935 4.04911 12.3739Z" fill="white"/>
</svg>
